<svg xmlns="http://www.w3.org/2000/svg" viewBox="0 0 1600 900"><defs><linearGradient id="bg" x1="0" y1="0" x2="1" y2="1"><stop offset="0%" stop-color="#090909"/><stop offset="55%" stop-color="#111111"/><stop offset="100%" stop-color="#050505"/></linearGradient><linearGradient id="sheen1" x1="0" y1="0" x2="1" y2="1"><stop offset="0%" stop-color="#fff" stop-opacity="0"/><stop offset="48%" stop-color="#fff" stop-opacity=".05"/><stop offset="52%" stop-color="#fff" stop-opacity=".22"/><stop offset="58%" stop-color="#fff" stop-opacity="0"/></linearGradient><linearGradient id="sheen2" x1="0" y1="0" x2="1" y2="1"><stop offset="0%" stop-color="#fff" stop-opacity="0"/><stop offset="48%" stop-color="#fff" stop-opacity=".04"/><stop offset="52%" stop-color="#fff" stop-opacity=".13"/><stop offset="58%" stop-color="#fff" stop-opacity="0"/></linearGradient><filter id="blur"><feGaussianBlur stdDeviation="18"/></filter></defs><rect width="1600" height="900" fill="url(#bg)"/><g opacity=".88"><polygon points="760,-80 920,-80 1500,980 1340,980" fill="url(#sheen1)"/><polygon points="900,-100 980,-100 1540,940 1460,940" fill="url(#sheen2)"/><polygon points="660,-140 720,-140 1300,940 1240,940" fill="url(#sheen2)"/><polygon points="1090,-100 1148,-100 1520,660 1462,660" fill="url(#sheen2)"/></g><g opacity=".34" filter="url(#blur)"><polygon points="828,-40 862,-40 1324,880 1290,880" fill="#fff"/><polygon points="734,36 760,36 1220,860 1192,860" fill="#d7d7d7"/></g><g fill="none" stroke="#C56A2D" stroke-width="3.5" stroke-linecap="round" stroke-linejoin="round"><path d="M1200 755 H1278 L1316 790 H1535"/><path d="M1146 815 H1226" opacity=".45"/></g></svg>